<svg xmlns="http://www.w3.org/2000/svg" viewBox="0 0 24 24" fill="#4AAD19">
  <path d="M8.691 2.188C3.891 2.188 0 5.476 0 9.53c0 2.212 1.17 4.203 3.002 5.55a.59.59 0 0 1 .213.665l-.39 1.48c-.019.07-.048.141-.048.213 0 .163.13.295.29.295a.326.326 0 0 0 .167-.054l1.903-1.114a.864.864 0 0 1 .717-.098 10.16 10.16 0 0 0 2.837.403c.276 0 .543-.027.811-.05-.857-2.578.157-4.972 1.932-6.446 1.703-1.415 4.136-1.987 6.395-1.587.11-1.56.13-3.19-.64-4.64C15.712 2.787 12.351 2.188 8.691 2.188zm-.505 5.832a.935.935 0 0 1-.926-.943c0-.521.415-.943.926-.943.511 0 .926.422.926.943a.935.935 0 0 1-.926.943zm4.269 0a.935.935 0 0 1-.926-.943c0-.521.415-.943.926-.943.511 0 .926.422.926.943a.935.935 0 0 1-.926.943zm8.224 2.132c-2.171 0-4.12 1.182-5.247 3.015-.988 1.59-1.14 3.47-.423 5.123a.59.59 0 0 1 .213.665l-.39 1.48c-.019.07-.048.141-.048.213 0 .163.13.295.29.295a.326.326 0 0 0 .167-.054l1.903-1.114a.864.864 0 0 1 .717-.098c.86.25 1.756.382 2.668.388 4.8 0 8.691-3.288 8.691-7.342 0-2.212-1.17-4.203-3.002-5.55a.59.59 0 0 1-.213-.665c.717-1.653.565-3.533-.423-5.123-.135-.216-.282-.424-.442-.624-.11.01-.22.015-.331.015zm-1.336 4.17a.935.935 0 0 1-.926-.943c0-.521.415-.943.926-.943.511 0 .926.422.926.943a.935.935 0 0 1-.926.943zm4.269 0a.935.935 0 0 1-.926-.943c0-.521.415-.943.926-.943.511 0 .926.422.926.943a.935.935 0 0 1-.926.943z"/>
</svg>
