<svg xmlns="http://www.w3.org/2000/svg" viewBox="0 0 24 24" fill="#E6162D">
  <path d="M9.163 5.5c.609 0 1.127.195 1.556.585.43.39.644.927.644 1.612s-.215 1.222-.644 1.612a2.068 2.068 0 0 1-1.556.585c-.609 0-1.127-.195-1.556-.585-.43-.39-.644-.927-.644-1.612s.215-1.222.644-1.612a2.068 2.068 0 0 1 1.556-.585zm5.674 0c.609 0 1.127.195 1.556.585.43.39.644.927.644 1.612s-.215 1.222-.644 1.612a2.068 2.068 0 0 1-1.556.585c-.609 0-1.127-.195-1.556-.585-.43-.39-.644-.927-.644-1.612s.215-1.222.644-1.612a2.068 2.068 0 0 1 1.556-.585zM12 0C5.373 0 0 5.373 0 12s5.373 12 12 12 12-5.373 12-12S18.627 0 12 0zm.14 19.18c-4.885.007-8.993-2.936-10.793-7.054a.424.424 0 0 1 .277-.567.41.41 0 0 1 .292.024c1.48.62 3.083.95 4.728.95 1.645 0 3.248-.33 4.728-.95a.41.41 0 0 1 .292-.024.424.424 0 0 1 .277.567c-1.8 4.118-5.908 7.061-10.793 7.054z"/>
</svg>
